# xmcd
#
# Track frame offsets: 
#        150
#        31590
#        60457
#        91855
#        123392
#        127890
#        190492
#        232292
#
# Disc length: 3804 seconds
#
# Revision: 4
# Processed by: cddbd v1.5.2PL0 Copyright (c) Steve Scherf et al.
# Submitted via: ExactAudioCopy v1.1
#
DISCID=630eda08
DTITLE=Miles Davis Quintet - Seven Steps: The Complete Columbia Record
DTITLE=ings of Miles Davis 1963-1964 [CD2 of 7)
DYEAR=1964
DGENRE=Jazz
TTITLE0=Seven Steps To Heaven (version 2) (rehearsal take) (stereo)
TTITLE1=Seven Steps To Heaven (version 2) (stereo)
TTITLE2=So Near, So Far (version 2) (stereo)
TTITLE3=Joshua (version 2) (stereo)
TTITLE4=Introduction By Andre Francis (live at Juan-Les-Pins, FRA 07-2
TTITLE4=7-63) (mono)
TTITLE5=Autumn Leaves (live at Juan-Les-Pins, FRA 07-27-63) (mono)
TTITLE6=Milestones (live at Juan-Les-Pins, FRA 07-27-63) (mono)
TTITLE7=I Thought About You (live at Juan-Les-Pins, FRA 07-27-63) (mon
TTITLE7=o)
EXTD=YEAR: 1964
EXTT0=
EXTT1=
EXTT2=
EXTT3=
EXTT4=
EXTT5=
EXTT6=
EXTT7=
PLAYORDER=
